<mxfile host="app.diagrams.net" modified="2021-03-04T07:04:04.456Z" agent="5.0 (Windows NT 10.0; Win64; x64) AppleWebKit/537.36 (KHTML, like Gecko) Chrome/88.0.4324.190 Safari/537.36" etag="wKqze8koonbjU0igrFbm" version="14.4.4" type="github">
  <diagram id="aUVJp8EklPoVdV9Hms_f" name="Page-1">
    <mxGraphModel dx="474" dy="254" grid="1" gridSize="10" guides="1" tooltips="1" connect="1" arrows="1" fold="1" page="1" pageScale="1" pageWidth="827" pageHeight="1169" math="0" shadow="0">
      <root>
        <mxCell id="0" />
        <mxCell id="1" parent="0" />
        <mxCell id="1niqHVQiEYOM2pVS4LOJ-19" value="年龄" style="ellipse;whiteSpace=wrap;html=1;shadow=1;rotation=-15;" vertex="1" parent="1">
          <mxGeometry x="440" y="870" width="75" height="50" as="geometry" />
        </mxCell>
        <mxCell id="1niqHVQiEYOM2pVS4LOJ-20" value="注册时间" style="ellipse;whiteSpace=wrap;html=1;shadow=1;" vertex="1" parent="1">
          <mxGeometry x="360" y="890" width="75" height="50" as="geometry" />
        </mxCell>
        <mxCell id="1niqHVQiEYOM2pVS4LOJ-1" value="用户表" style="rounded=0;whiteSpace=wrap;html=1;shadow=1;" vertex="1" parent="1">
          <mxGeometry x="355" y="790" width="80" height="40" as="geometry" />
        </mxCell>
        <mxCell id="1niqHVQiEYOM2pVS4LOJ-2" value="id" style="ellipse;whiteSpace=wrap;html=1;shadow=1;" vertex="1" parent="1">
          <mxGeometry x="245" y="730" width="60" height="40" as="geometry" />
        </mxCell>
        <mxCell id="1niqHVQiEYOM2pVS4LOJ-3" value="用户名" style="ellipse;whiteSpace=wrap;html=1;shadow=1;" vertex="1" parent="1">
          <mxGeometry x="297.5" y="700" width="75" height="50" as="geometry" />
        </mxCell>
        <mxCell id="1niqHVQiEYOM2pVS4LOJ-15" value="密码" style="ellipse;whiteSpace=wrap;html=1;shadow=1;" vertex="1" parent="1">
          <mxGeometry x="376" y="690" width="75" height="50" as="geometry" />
        </mxCell>
        <mxCell id="1niqHVQiEYOM2pVS4LOJ-16" value="用户类型" style="ellipse;whiteSpace=wrap;html=1;shadow=1;" vertex="1" parent="1">
          <mxGeometry x="460" y="700" width="75" height="50" as="geometry" />
        </mxCell>
        <mxCell id="1niqHVQiEYOM2pVS4LOJ-17" value="用户昵称" style="ellipse;whiteSpace=wrap;html=1;shadow=1;" vertex="1" parent="1">
          <mxGeometry x="480" y="760" width="75" height="50" as="geometry" />
        </mxCell>
        <mxCell id="1niqHVQiEYOM2pVS4LOJ-18" value="性别" style="ellipse;whiteSpace=wrap;html=1;shadow=1;" vertex="1" parent="1">
          <mxGeometry x="470" y="820" width="75" height="50" as="geometry" />
        </mxCell>
        <mxCell id="1niqHVQiEYOM2pVS4LOJ-21" value="地址" style="ellipse;whiteSpace=wrap;html=1;shadow=1;" vertex="1" parent="1">
          <mxGeometry x="280" y="880" width="75" height="50" as="geometry" />
        </mxCell>
        <mxCell id="1niqHVQiEYOM2pVS4LOJ-22" value="个性签名" style="ellipse;whiteSpace=wrap;html=1;shadow=1;" vertex="1" parent="1">
          <mxGeometry x="237.5" y="830" width="75" height="50" as="geometry" />
        </mxCell>
        <mxCell id="1niqHVQiEYOM2pVS4LOJ-23" value="头像" style="ellipse;whiteSpace=wrap;html=1;shadow=1;" vertex="1" parent="1">
          <mxGeometry x="230" y="780" width="75" height="50" as="geometry" />
        </mxCell>
        <mxCell id="1niqHVQiEYOM2pVS4LOJ-24" value="" style="endArrow=none;html=1;entryX=0;entryY=0.5;entryDx=0;entryDy=0;exitX=0.996;exitY=0.603;exitDx=0;exitDy=0;exitPerimeter=0;" edge="1" parent="1" source="1niqHVQiEYOM2pVS4LOJ-23" target="1niqHVQiEYOM2pVS4LOJ-1">
          <mxGeometry width="50" height="50" relative="1" as="geometry">
            <mxPoint x="300" y="820" as="sourcePoint" />
            <mxPoint x="350" y="770" as="targetPoint" />
          </mxGeometry>
        </mxCell>
        <mxCell id="1niqHVQiEYOM2pVS4LOJ-25" value="" style="endArrow=none;html=1;entryX=0;entryY=0.5;entryDx=0;entryDy=0;exitX=1;exitY=0.5;exitDx=0;exitDy=0;" edge="1" parent="1" source="1niqHVQiEYOM2pVS4LOJ-22" target="1niqHVQiEYOM2pVS4LOJ-1">
          <mxGeometry width="50" height="50" relative="1" as="geometry">
            <mxPoint x="320" y="890" as="sourcePoint" />
            <mxPoint x="370" y="840" as="targetPoint" />
          </mxGeometry>
        </mxCell>
        <mxCell id="1niqHVQiEYOM2pVS4LOJ-27" value="" style="endArrow=none;html=1;entryX=0.5;entryY=1;entryDx=0;entryDy=0;exitX=0.8;exitY=0.2;exitDx=0;exitDy=0;exitPerimeter=0;" edge="1" parent="1" source="1niqHVQiEYOM2pVS4LOJ-21" target="1niqHVQiEYOM2pVS4LOJ-1">
          <mxGeometry width="50" height="50" relative="1" as="geometry">
            <mxPoint x="350" y="910" as="sourcePoint" />
            <mxPoint x="400" y="860" as="targetPoint" />
          </mxGeometry>
        </mxCell>
        <mxCell id="1niqHVQiEYOM2pVS4LOJ-28" value="" style="endArrow=none;html=1;entryX=0.5;entryY=1;entryDx=0;entryDy=0;exitX=0.5;exitY=0;exitDx=0;exitDy=0;" edge="1" parent="1" source="1niqHVQiEYOM2pVS4LOJ-20" target="1niqHVQiEYOM2pVS4LOJ-1">
          <mxGeometry width="50" height="50" relative="1" as="geometry">
            <mxPoint x="370" y="900" as="sourcePoint" />
            <mxPoint x="420" y="850" as="targetPoint" />
          </mxGeometry>
        </mxCell>
        <mxCell id="1niqHVQiEYOM2pVS4LOJ-29" value="" style="endArrow=none;html=1;exitX=0.5;exitY=0;exitDx=0;exitDy=0;" edge="1" parent="1" source="1niqHVQiEYOM2pVS4LOJ-19">
          <mxGeometry width="50" height="50" relative="1" as="geometry">
            <mxPoint x="70" y="840" as="sourcePoint" />
            <mxPoint x="395" y="830" as="targetPoint" />
          </mxGeometry>
        </mxCell>
        <mxCell id="1niqHVQiEYOM2pVS4LOJ-30" value="" style="endArrow=none;html=1;entryX=1;entryY=0.5;entryDx=0;entryDy=0;exitX=0.021;exitY=0.431;exitDx=0;exitDy=0;exitPerimeter=0;" edge="1" parent="1" source="1niqHVQiEYOM2pVS4LOJ-18" target="1niqHVQiEYOM2pVS4LOJ-1">
          <mxGeometry width="50" height="50" relative="1" as="geometry">
            <mxPoint x="570" y="900" as="sourcePoint" />
            <mxPoint x="620" y="850" as="targetPoint" />
          </mxGeometry>
        </mxCell>
        <mxCell id="1niqHVQiEYOM2pVS4LOJ-31" value="" style="endArrow=none;html=1;entryX=0;entryY=0.5;entryDx=0;entryDy=0;exitX=1;exitY=0.5;exitDx=0;exitDy=0;" edge="1" parent="1" source="1niqHVQiEYOM2pVS4LOJ-1" target="1niqHVQiEYOM2pVS4LOJ-17">
          <mxGeometry width="50" height="50" relative="1" as="geometry">
            <mxPoint x="440" y="810" as="sourcePoint" />
            <mxPoint x="480" y="760" as="targetPoint" />
          </mxGeometry>
        </mxCell>
        <mxCell id="1niqHVQiEYOM2pVS4LOJ-32" value="" style="endArrow=none;html=1;entryX=0.5;entryY=1;entryDx=0;entryDy=0;exitX=1;exitY=0.5;exitDx=0;exitDy=0;" edge="1" parent="1" source="1niqHVQiEYOM2pVS4LOJ-1" target="1niqHVQiEYOM2pVS4LOJ-16">
          <mxGeometry width="50" height="50" relative="1" as="geometry">
            <mxPoint x="440" y="810" as="sourcePoint" />
            <mxPoint x="480" y="760" as="targetPoint" />
          </mxGeometry>
        </mxCell>
        <mxCell id="1niqHVQiEYOM2pVS4LOJ-33" value="" style="endArrow=none;html=1;exitX=0.5;exitY=0;exitDx=0;exitDy=0;entryX=0.5;entryY=1;entryDx=0;entryDy=0;" edge="1" parent="1" source="1niqHVQiEYOM2pVS4LOJ-1" target="1niqHVQiEYOM2pVS4LOJ-3">
          <mxGeometry width="50" height="50" relative="1" as="geometry">
            <mxPoint x="300" y="770" as="sourcePoint" />
            <mxPoint x="350" y="720" as="targetPoint" />
          </mxGeometry>
        </mxCell>
        <mxCell id="1niqHVQiEYOM2pVS4LOJ-34" value="" style="endArrow=none;html=1;entryX=0.5;entryY=1;entryDx=0;entryDy=0;exitX=0.5;exitY=0;exitDx=0;exitDy=0;" edge="1" parent="1" source="1niqHVQiEYOM2pVS4LOJ-1" target="1niqHVQiEYOM2pVS4LOJ-15">
          <mxGeometry width="50" height="50" relative="1" as="geometry">
            <mxPoint x="340" y="680" as="sourcePoint" />
            <mxPoint x="390" y="630" as="targetPoint" />
          </mxGeometry>
        </mxCell>
        <mxCell id="1niqHVQiEYOM2pVS4LOJ-35" value="" style="endArrow=none;html=1;entryX=1;entryY=1;entryDx=0;entryDy=0;exitX=0;exitY=0.5;exitDx=0;exitDy=0;" edge="1" parent="1" source="1niqHVQiEYOM2pVS4LOJ-1" target="1niqHVQiEYOM2pVS4LOJ-2">
          <mxGeometry width="50" height="50" relative="1" as="geometry">
            <mxPoint x="110" y="800" as="sourcePoint" />
            <mxPoint x="160" y="750" as="targetPoint" />
          </mxGeometry>
        </mxCell>
        <mxCell id="1niqHVQiEYOM2pVS4LOJ-37" value="创建时间" style="ellipse;whiteSpace=wrap;html=1;shadow=1;rotation=-15;" vertex="1" parent="1">
          <mxGeometry x="450" y="1380" width="75" height="50" as="geometry" />
        </mxCell>
        <mxCell id="1niqHVQiEYOM2pVS4LOJ-38" value="文章类型" style="ellipse;whiteSpace=wrap;html=1;shadow=1;" vertex="1" parent="1">
          <mxGeometry x="270" y="1350" width="75" height="50" as="geometry" />
        </mxCell>
        <mxCell id="1niqHVQiEYOM2pVS4LOJ-39" value="文章表" style="rounded=0;whiteSpace=wrap;html=1;shadow=1;" vertex="1" parent="1">
          <mxGeometry x="360" y="1290" width="80" height="40" as="geometry" />
        </mxCell>
        <mxCell id="1niqHVQiEYOM2pVS4LOJ-40" value="id" style="ellipse;whiteSpace=wrap;html=1;shadow=1;" vertex="1" parent="1">
          <mxGeometry x="250" y="1230" width="60" height="40" as="geometry" />
        </mxCell>
        <mxCell id="1niqHVQiEYOM2pVS4LOJ-41" value="标题" style="ellipse;whiteSpace=wrap;html=1;shadow=1;" vertex="1" parent="1">
          <mxGeometry x="302.5" y="1200" width="75" height="50" as="geometry" />
        </mxCell>
        <mxCell id="1niqHVQiEYOM2pVS4LOJ-42" value="内容" style="ellipse;whiteSpace=wrap;html=1;shadow=1;" vertex="1" parent="1">
          <mxGeometry x="381" y="1190" width="75" height="50" as="geometry" />
        </mxCell>
        <mxCell id="1niqHVQiEYOM2pVS4LOJ-43" value="访问数" style="ellipse;whiteSpace=wrap;html=1;shadow=1;" vertex="1" parent="1">
          <mxGeometry x="465" y="1200" width="75" height="50" as="geometry" />
        </mxCell>
        <mxCell id="1niqHVQiEYOM2pVS4LOJ-44" value="点赞数" style="ellipse;whiteSpace=wrap;html=1;shadow=1;" vertex="1" parent="1">
          <mxGeometry x="485" y="1260" width="75" height="50" as="geometry" />
        </mxCell>
        <mxCell id="1niqHVQiEYOM2pVS4LOJ-45" value="作者" style="ellipse;whiteSpace=wrap;html=1;shadow=1;" vertex="1" parent="1">
          <mxGeometry x="475" y="1320" width="75" height="50" as="geometry" />
        </mxCell>
        <mxCell id="1niqHVQiEYOM2pVS4LOJ-46" value="评论数" style="ellipse;whiteSpace=wrap;html=1;shadow=1;" vertex="1" parent="1">
          <mxGeometry x="242.5" y="1280" width="75" height="50" as="geometry" />
        </mxCell>
        <mxCell id="1niqHVQiEYOM2pVS4LOJ-51" value="" style="endArrow=none;html=1;entryX=0;entryY=0.5;entryDx=0;entryDy=0;exitX=1;exitY=0.5;exitDx=0;exitDy=0;" edge="1" parent="1" source="1niqHVQiEYOM2pVS4LOJ-46" target="1niqHVQiEYOM2pVS4LOJ-39">
          <mxGeometry width="50" height="50" relative="1" as="geometry">
            <mxPoint x="355" y="1410" as="sourcePoint" />
            <mxPoint x="405" y="1360" as="targetPoint" />
          </mxGeometry>
        </mxCell>
        <mxCell id="1niqHVQiEYOM2pVS4LOJ-52" value="" style="endArrow=none;html=1;exitX=0.5;exitY=0;exitDx=0;exitDy=0;" edge="1" parent="1" source="1niqHVQiEYOM2pVS4LOJ-38">
          <mxGeometry width="50" height="50" relative="1" as="geometry">
            <mxPoint x="375" y="1400" as="sourcePoint" />
            <mxPoint x="360" y="1310" as="targetPoint" />
          </mxGeometry>
        </mxCell>
        <mxCell id="1niqHVQiEYOM2pVS4LOJ-53" value="" style="endArrow=none;html=1;exitX=0.5;exitY=0;exitDx=0;exitDy=0;" edge="1" parent="1" source="1niqHVQiEYOM2pVS4LOJ-37">
          <mxGeometry width="50" height="50" relative="1" as="geometry">
            <mxPoint x="75" y="1340" as="sourcePoint" />
            <mxPoint x="400" y="1330" as="targetPoint" />
          </mxGeometry>
        </mxCell>
        <mxCell id="1niqHVQiEYOM2pVS4LOJ-54" value="" style="endArrow=none;html=1;entryX=1;entryY=0.5;entryDx=0;entryDy=0;exitX=0.021;exitY=0.431;exitDx=0;exitDy=0;exitPerimeter=0;" edge="1" parent="1" source="1niqHVQiEYOM2pVS4LOJ-45" target="1niqHVQiEYOM2pVS4LOJ-39">
          <mxGeometry width="50" height="50" relative="1" as="geometry">
            <mxPoint x="575" y="1400" as="sourcePoint" />
            <mxPoint x="625" y="1350" as="targetPoint" />
          </mxGeometry>
        </mxCell>
        <mxCell id="1niqHVQiEYOM2pVS4LOJ-55" value="" style="endArrow=none;html=1;entryX=0;entryY=0.5;entryDx=0;entryDy=0;exitX=1;exitY=0.5;exitDx=0;exitDy=0;" edge="1" parent="1" source="1niqHVQiEYOM2pVS4LOJ-39" target="1niqHVQiEYOM2pVS4LOJ-44">
          <mxGeometry width="50" height="50" relative="1" as="geometry">
            <mxPoint x="445" y="1310" as="sourcePoint" />
            <mxPoint x="485" y="1260" as="targetPoint" />
          </mxGeometry>
        </mxCell>
        <mxCell id="1niqHVQiEYOM2pVS4LOJ-56" value="" style="endArrow=none;html=1;entryX=0.5;entryY=1;entryDx=0;entryDy=0;exitX=1;exitY=0.5;exitDx=0;exitDy=0;" edge="1" parent="1" source="1niqHVQiEYOM2pVS4LOJ-39" target="1niqHVQiEYOM2pVS4LOJ-43">
          <mxGeometry width="50" height="50" relative="1" as="geometry">
            <mxPoint x="445" y="1310" as="sourcePoint" />
            <mxPoint x="485" y="1260" as="targetPoint" />
          </mxGeometry>
        </mxCell>
        <mxCell id="1niqHVQiEYOM2pVS4LOJ-57" value="" style="endArrow=none;html=1;exitX=0.5;exitY=0;exitDx=0;exitDy=0;entryX=0.5;entryY=1;entryDx=0;entryDy=0;" edge="1" parent="1" source="1niqHVQiEYOM2pVS4LOJ-39" target="1niqHVQiEYOM2pVS4LOJ-41">
          <mxGeometry width="50" height="50" relative="1" as="geometry">
            <mxPoint x="305" y="1270" as="sourcePoint" />
            <mxPoint x="355" y="1220" as="targetPoint" />
          </mxGeometry>
        </mxCell>
        <mxCell id="1niqHVQiEYOM2pVS4LOJ-58" value="" style="endArrow=none;html=1;entryX=0.5;entryY=1;entryDx=0;entryDy=0;exitX=0.5;exitY=0;exitDx=0;exitDy=0;" edge="1" parent="1" source="1niqHVQiEYOM2pVS4LOJ-39" target="1niqHVQiEYOM2pVS4LOJ-42">
          <mxGeometry width="50" height="50" relative="1" as="geometry">
            <mxPoint x="345" y="1180" as="sourcePoint" />
            <mxPoint x="395" y="1130" as="targetPoint" />
          </mxGeometry>
        </mxCell>
        <mxCell id="1niqHVQiEYOM2pVS4LOJ-59" value="" style="endArrow=none;html=1;entryX=1;entryY=1;entryDx=0;entryDy=0;exitX=0;exitY=0.5;exitDx=0;exitDy=0;" edge="1" parent="1" source="1niqHVQiEYOM2pVS4LOJ-39" target="1niqHVQiEYOM2pVS4LOJ-40">
          <mxGeometry width="50" height="50" relative="1" as="geometry">
            <mxPoint x="115" y="1300" as="sourcePoint" />
            <mxPoint x="165" y="1250" as="targetPoint" />
          </mxGeometry>
        </mxCell>
        <mxCell id="1niqHVQiEYOM2pVS4LOJ-62" value="是否被读" style="ellipse;whiteSpace=wrap;html=1;shadow=1;rotation=-15;" vertex="1" parent="1">
          <mxGeometry x="245" y="1740" width="75" height="50" as="geometry" />
        </mxCell>
        <mxCell id="1niqHVQiEYOM2pVS4LOJ-63" value="评论时间" style="ellipse;whiteSpace=wrap;html=1;shadow=1;" vertex="1" parent="1">
          <mxGeometry x="227.5" y="1680" width="75" height="50" as="geometry" />
        </mxCell>
        <mxCell id="1niqHVQiEYOM2pVS4LOJ-64" value="评论表" style="rounded=0;whiteSpace=wrap;html=1;shadow=1;" vertex="1" parent="1">
          <mxGeometry x="360" y="1680" width="80" height="40" as="geometry" />
        </mxCell>
        <mxCell id="1niqHVQiEYOM2pVS4LOJ-65" value="id" style="ellipse;whiteSpace=wrap;html=1;shadow=1;" vertex="1" parent="1">
          <mxGeometry x="250" y="1620" width="60" height="40" as="geometry" />
        </mxCell>
        <mxCell id="1niqHVQiEYOM2pVS4LOJ-66" value="用户名" style="ellipse;whiteSpace=wrap;html=1;shadow=1;" vertex="1" parent="1">
          <mxGeometry x="302.5" y="1590" width="75" height="50" as="geometry" />
        </mxCell>
        <mxCell id="1niqHVQiEYOM2pVS4LOJ-67" value="用户昵称" style="ellipse;whiteSpace=wrap;html=1;shadow=1;" vertex="1" parent="1">
          <mxGeometry x="381" y="1580" width="75" height="50" as="geometry" />
        </mxCell>
        <mxCell id="1niqHVQiEYOM2pVS4LOJ-68" value="评论内容" style="ellipse;whiteSpace=wrap;html=1;shadow=1;" vertex="1" parent="1">
          <mxGeometry x="465" y="1590" width="75" height="50" as="geometry" />
        </mxCell>
        <mxCell id="1niqHVQiEYOM2pVS4LOJ-69" value="文章ID" style="ellipse;whiteSpace=wrap;html=1;shadow=1;" vertex="1" parent="1">
          <mxGeometry x="485" y="1650" width="75" height="50" as="geometry" />
        </mxCell>
        <mxCell id="1niqHVQiEYOM2pVS4LOJ-70" value="点赞数" style="ellipse;whiteSpace=wrap;html=1;shadow=1;" vertex="1" parent="1">
          <mxGeometry x="475" y="1710" width="75" height="50" as="geometry" />
        </mxCell>
        <mxCell id="1niqHVQiEYOM2pVS4LOJ-77" value="" style="endArrow=none;html=1;exitX=1;exitY=0.5;exitDx=0;exitDy=0;entryX=0;entryY=0.5;entryDx=0;entryDy=0;" edge="1" parent="1" source="1niqHVQiEYOM2pVS4LOJ-63" target="1niqHVQiEYOM2pVS4LOJ-64">
          <mxGeometry width="50" height="50" relative="1" as="geometry">
            <mxPoint x="375" y="1790" as="sourcePoint" />
            <mxPoint x="330" y="1705" as="targetPoint" />
          </mxGeometry>
        </mxCell>
        <mxCell id="1niqHVQiEYOM2pVS4LOJ-78" value="" style="endArrow=none;html=1;exitX=1;exitY=0.5;exitDx=0;exitDy=0;entryX=0;entryY=0.5;entryDx=0;entryDy=0;" edge="1" parent="1" source="1niqHVQiEYOM2pVS4LOJ-62" target="1niqHVQiEYOM2pVS4LOJ-64">
          <mxGeometry width="50" height="50" relative="1" as="geometry">
            <mxPoint x="75" y="1730" as="sourcePoint" />
            <mxPoint x="350" y="1700" as="targetPoint" />
          </mxGeometry>
        </mxCell>
        <mxCell id="1niqHVQiEYOM2pVS4LOJ-79" value="" style="endArrow=none;html=1;entryX=1;entryY=0.5;entryDx=0;entryDy=0;exitX=0.021;exitY=0.431;exitDx=0;exitDy=0;exitPerimeter=0;" edge="1" parent="1" source="1niqHVQiEYOM2pVS4LOJ-70" target="1niqHVQiEYOM2pVS4LOJ-64">
          <mxGeometry width="50" height="50" relative="1" as="geometry">
            <mxPoint x="575" y="1790" as="sourcePoint" />
            <mxPoint x="625" y="1740" as="targetPoint" />
          </mxGeometry>
        </mxCell>
        <mxCell id="1niqHVQiEYOM2pVS4LOJ-80" value="" style="endArrow=none;html=1;entryX=0;entryY=0.5;entryDx=0;entryDy=0;exitX=1;exitY=0.5;exitDx=0;exitDy=0;" edge="1" parent="1" source="1niqHVQiEYOM2pVS4LOJ-64" target="1niqHVQiEYOM2pVS4LOJ-69">
          <mxGeometry width="50" height="50" relative="1" as="geometry">
            <mxPoint x="445" y="1700" as="sourcePoint" />
            <mxPoint x="485" y="1650" as="targetPoint" />
          </mxGeometry>
        </mxCell>
        <mxCell id="1niqHVQiEYOM2pVS4LOJ-81" value="" style="endArrow=none;html=1;entryX=0.5;entryY=1;entryDx=0;entryDy=0;exitX=1;exitY=0.5;exitDx=0;exitDy=0;" edge="1" parent="1" source="1niqHVQiEYOM2pVS4LOJ-64" target="1niqHVQiEYOM2pVS4LOJ-68">
          <mxGeometry width="50" height="50" relative="1" as="geometry">
            <mxPoint x="445" y="1700" as="sourcePoint" />
            <mxPoint x="485" y="1650" as="targetPoint" />
          </mxGeometry>
        </mxCell>
        <mxCell id="1niqHVQiEYOM2pVS4LOJ-82" value="" style="endArrow=none;html=1;exitX=0.5;exitY=0;exitDx=0;exitDy=0;entryX=0.5;entryY=1;entryDx=0;entryDy=0;" edge="1" parent="1" source="1niqHVQiEYOM2pVS4LOJ-64" target="1niqHVQiEYOM2pVS4LOJ-66">
          <mxGeometry width="50" height="50" relative="1" as="geometry">
            <mxPoint x="305" y="1660" as="sourcePoint" />
            <mxPoint x="355" y="1610" as="targetPoint" />
          </mxGeometry>
        </mxCell>
        <mxCell id="1niqHVQiEYOM2pVS4LOJ-83" value="" style="endArrow=none;html=1;entryX=0.5;entryY=1;entryDx=0;entryDy=0;exitX=0.5;exitY=0;exitDx=0;exitDy=0;" edge="1" parent="1" source="1niqHVQiEYOM2pVS4LOJ-64" target="1niqHVQiEYOM2pVS4LOJ-67">
          <mxGeometry width="50" height="50" relative="1" as="geometry">
            <mxPoint x="345" y="1570" as="sourcePoint" />
            <mxPoint x="395" y="1520" as="targetPoint" />
          </mxGeometry>
        </mxCell>
        <mxCell id="1niqHVQiEYOM2pVS4LOJ-84" value="" style="endArrow=none;html=1;entryX=1;entryY=1;entryDx=0;entryDy=0;exitX=0;exitY=0.5;exitDx=0;exitDy=0;" edge="1" parent="1" source="1niqHVQiEYOM2pVS4LOJ-64" target="1niqHVQiEYOM2pVS4LOJ-65">
          <mxGeometry width="50" height="50" relative="1" as="geometry">
            <mxPoint x="115" y="1690" as="sourcePoint" />
            <mxPoint x="165" y="1640" as="targetPoint" />
          </mxGeometry>
        </mxCell>
        <mxCell id="1niqHVQiEYOM2pVS4LOJ-88" value="评论点赞表" style="rounded=0;whiteSpace=wrap;html=1;shadow=1;" vertex="1" parent="1">
          <mxGeometry x="345" y="1980" width="80" height="40" as="geometry" />
        </mxCell>
        <mxCell id="1niqHVQiEYOM2pVS4LOJ-89" value="id" style="ellipse;whiteSpace=wrap;html=1;shadow=1;" vertex="1" parent="1">
          <mxGeometry x="220" y="1960" width="60" height="40" as="geometry" />
        </mxCell>
        <mxCell id="1niqHVQiEYOM2pVS4LOJ-90" value="文章ID" style="ellipse;whiteSpace=wrap;html=1;shadow=1;" vertex="1" parent="1">
          <mxGeometry x="260" y="1900" width="75" height="50" as="geometry" />
        </mxCell>
        <mxCell id="1niqHVQiEYOM2pVS4LOJ-91" value="用户ID" style="ellipse;whiteSpace=wrap;html=1;shadow=1;" vertex="1" parent="1">
          <mxGeometry x="366" y="1880" width="75" height="50" as="geometry" />
        </mxCell>
        <mxCell id="1niqHVQiEYOM2pVS4LOJ-92" value="评论ID" style="ellipse;whiteSpace=wrap;html=1;shadow=1;" vertex="1" parent="1">
          <mxGeometry x="460" y="1950" width="75" height="50" as="geometry" />
        </mxCell>
        <mxCell id="1niqHVQiEYOM2pVS4LOJ-99" value="" style="endArrow=none;html=1;entryX=0.5;entryY=1;entryDx=0;entryDy=0;exitX=1;exitY=0.5;exitDx=0;exitDy=0;" edge="1" parent="1" source="1niqHVQiEYOM2pVS4LOJ-88" target="1niqHVQiEYOM2pVS4LOJ-92">
          <mxGeometry width="50" height="50" relative="1" as="geometry">
            <mxPoint x="430" y="2000" as="sourcePoint" />
            <mxPoint x="470" y="1950" as="targetPoint" />
          </mxGeometry>
        </mxCell>
        <mxCell id="1niqHVQiEYOM2pVS4LOJ-100" value="" style="endArrow=none;html=1;exitX=0.5;exitY=0;exitDx=0;exitDy=0;entryX=0.5;entryY=1;entryDx=0;entryDy=0;" edge="1" parent="1" source="1niqHVQiEYOM2pVS4LOJ-88" target="1niqHVQiEYOM2pVS4LOJ-90">
          <mxGeometry width="50" height="50" relative="1" as="geometry">
            <mxPoint x="290" y="1960" as="sourcePoint" />
            <mxPoint x="340" y="1910" as="targetPoint" />
          </mxGeometry>
        </mxCell>
        <mxCell id="1niqHVQiEYOM2pVS4LOJ-101" value="" style="endArrow=none;html=1;entryX=0.5;entryY=1;entryDx=0;entryDy=0;exitX=0.5;exitY=0;exitDx=0;exitDy=0;" edge="1" parent="1" source="1niqHVQiEYOM2pVS4LOJ-88" target="1niqHVQiEYOM2pVS4LOJ-91">
          <mxGeometry width="50" height="50" relative="1" as="geometry">
            <mxPoint x="330" y="1870" as="sourcePoint" />
            <mxPoint x="380" y="1820" as="targetPoint" />
          </mxGeometry>
        </mxCell>
        <mxCell id="1niqHVQiEYOM2pVS4LOJ-102" value="" style="endArrow=none;html=1;entryX=1;entryY=1;entryDx=0;entryDy=0;exitX=0;exitY=0.5;exitDx=0;exitDy=0;" edge="1" parent="1" source="1niqHVQiEYOM2pVS4LOJ-88" target="1niqHVQiEYOM2pVS4LOJ-89">
          <mxGeometry width="50" height="50" relative="1" as="geometry">
            <mxPoint x="100" y="1990" as="sourcePoint" />
            <mxPoint x="150" y="1940" as="targetPoint" />
          </mxGeometry>
        </mxCell>
      </root>
    </mxGraphModel>
  </diagram>
</mxfile>
